# xmcd
#
# Track frame offsets:
#	182
#	17405
#	29132
#	43945
#	54825
#	78580
#	93385
#	105375
#	121727
#	135025
#	145887
#	159495
#	172300
#	185920
#	197792
#	211557
#	223277
#	232720
#	249752
#	270807
#
# Disc length: 3762
#
# Revision: 2
# Processed by: cddbd v1.5.1PL0 Copyright (c) Steve Scherf et al.
# Submitted via: EasyCDDAExtractor 5.0.7
# Normalized: r1:DSETVAR1
#
DISCID=080eb014
DTITLE=Various Artist - 20 Country Hits
DYEAR=1900
DGENRE=Country
TTITLE0=Johnny Cash - Ghost Riders In The Sky
TTITLE1=Marty Robbins - Eighteen Yellow Roses
TTITLE2=Johnny Horton - Sink The Bismark
TTITLE3=Frankie Laine - Sixteen Tons
TTITLE4=Willie Nelson - Me And Bobby McGee
TTITLE5=Johnny Rodriquez - Don't Let The Sun Catch You Crying
TTITLE6=Bobby Vinton - Roses Are Red (My Love)
TTITLE7=The Charlie Daniels Band - The Devil Went Down To Georgia
TTITLE8=Freddy Weller - Games People Play
TTITLE9=The Statler Brothers - Ruby Don't Take Your Love To Town
TTITLE10=Johnny Cash - Don't Take Your Guns To Town
TTITLE11=Johnny Horton - North To Alaska
TTITLE12=Claude King - Wolverton Mountain
TTITLE13=Johnny Cash - Ring Of Fire
TTITLE14=Jimmy Dean - Big Bad John
TTITLE15=Johnny Horton - Battle Of New Orleans
TTITLE16=Frankie Laine - Rawhide
TTITLE17=Johnny Cash - A Boy Named Sue
TTITLE18=Marty Robbins - El Paso
TTITLE19=Stonewall Jackson - Waterloo
EXTD=
EXTT0=
EXTT1=
EXTT2=
EXTT3=
EXTT4=
EXTT5=
EXTT6=
EXTT7=
EXTT8=
EXTT9=
EXTT10=
EXTT11=
EXTT12=
EXTT13=
EXTT14=
EXTT15=
EXTT16=
EXTT17=
EXTT18=
EXTT19=
PLAYORDER=
